<svg version="1.1" width="864" height="486" viewBox="0 0 720 405" xmlns="http://www.w3.org/2000/svg" xmlns:xlink="http://www.w3.org/1999/xlink"><g xmlns="http://www.w3.org/2000/svg" id="obj_1"><g id="obj_3" transform="matrix(-1,1.2246467991473532e-16,-1.2246467991473532e-16,-1,458.662,306.468)" opacity="1" display="inline"><path d="M 50 86.65 L 100 0 L 150 86.65 L 200 173.3 L 100 173.3 L 0 173.3 L 50 86.65 Z M 100 14.883 L 56.25 90.383 L 12.5 165.883 L 100 165.883 L 187.5 165.883 L 143.75 90.383 L 100 14.883 Z " fill-opacity="1" fill="url(#obj_3_grad_pat_fill)" stroke="none" stroke-width="1" stroke-linecap="square" stroke-linejoin="miter"/><defs><radialGradient spreadMethod="pad" cx="0.503" cy="0.596" r="0.5" id="obj_3_grad_pat_fill"><stop offset="0" stop-color="#000000" stop-opacity="1"/><stop offset="0.546875" stop-color="#ffffff" stop-opacity="1"/><stop offset="1" stop-color="#000000" stop-opacity="1"/></radialGradient></defs></g><g id="obj_9" transform="matrix(1,0,0,1,293.917,146.006)" opacity="1" display="inline"><g id="obj_4" transform="matrix(1,0,0,1,8.26,15.014)" opacity="1" display="inline"><path d="M 0 91.778 C 3.2725 83.5967 36.711 7.6313 36.711 0 " fill="none" stroke-opacity="1" stroke="#000000" stroke-width="2" stroke-linecap="round" stroke-linejoin="miter"/><defs/></g><g id="obj_5" transform="matrix(1,0,0,1,74.621,61.092)" opacity="1" display="inline"><path d="M 27.3355 0 C 4.7488 0 -11.2477 38.1802 9.8976 44.0539 C 37.2474 51.6512 42.7343 25.6981 54.869 25.6981 " fill="none" stroke-opacity="1" stroke="#000000" stroke-width="2" stroke-linecap="round" stroke-linejoin="miter"/><defs/></g><g id="obj_6" transform="matrix(1,0,0,1,0,0)" opacity="1" display="inline"><path d="M 0 36.711 C 28.1058 36.711 80.5372 0 100.956 0 " fill="none" stroke-opacity="1" stroke="#000000" stroke-width="2" stroke-linecap="round" stroke-linejoin="miter"/><defs/></g><g id="obj_7" transform="matrix(1,0,0,1,20.191,51.725)" opacity="1" display="inline"><path d="M 0 20.191 C 14.8606 14.2468 43.0549 0 59.656 0 " fill="none" stroke-opacity="1" stroke="#000000" stroke-width="2" stroke-linecap="round" stroke-linejoin="miter"/><defs/></g><g id="obj_8" transform="matrix(1,0,0,1,74.34,60.903)" opacity="1" display="inline"><path d="M 0 33.958 C 6.6354 25.1107 29.369 10.1767 29.369 0 " fill="none" stroke-opacity="1" stroke="#000000" stroke-width="2" stroke-linecap="round" stroke-linejoin="miter"/><defs/></g></g><g id="obj_16" transform="matrix(1,0,0,1,90.984,71.825)" opacity="1" display="inline"><g id="obj_10" transform="matrix(1,0,0,1,49.99,182.57)" opacity="1" display="inline"><path d="M 134.329 25.316 C 134.329 25.316 124.977 18.64 117.735 6.9469 C 110.4939 -4.7461 80.2409 0.5349 60.6248 6.7149 C 41.0088 12.896 34.8278 14.085 34.8278 14.085 C 34.8278 14.085 25.4108 19.164 5.0677 6.9469 C -15.2743 -5.2711 30.6518 31.239 53.9778 33.7091 C 77.3049 36.1781 93.1399 28.826 108.5329 28.826 C 123.926 28.826 134.329 25.316 134.329 25.316 Z " fill-opacity="1" fill="url(#obj_10_grad_pat_fill)" stroke="none" stroke-width="1" stroke-linecap="square" stroke-linejoin="miter" filter="url(#obj_10_filter)"/><defs><radialGradient spreadMethod="pad" cx="0.94" cy="0.09191162109375" r="1.5" id="obj_10_grad_pat_fill"><stop offset="0" stop-color="#969696" stop-opacity="0.9921568627450981"/><stop offset="0.55859375" stop-color="#212121" stop-opacity="0.99609375"/></radialGradient><filter id="obj_10_filter" x="-60%" y="-200%" width="220%" height="500%" filterUnits="objectBoundingBox"><feGaussianBlur in="SourceAlpha" stdDeviation="8"/><feComposite result="glowInnerdiff" operator="arithmetic" in2="SourceAlpha" k1="0" k2="-1" k3="1" k4="0"/><feFlood flood-color="#000000" flood-opacity="1"/><feComposite operator="in" in2="glowInnerdiff"/><feComposite result="glowInner" operator="over" in2="SourceGraphic"/></filter></defs></g><g id="obj_12" transform="matrix(0.9510565162951535,0.3090169943749474,-0.3090169943749474,0.9510565162951535,10.410595114063888,95.88329366951227)" opacity="1" display="inline"><path d="M 173.588 25.3162 C 173.588 25.3162 161.503 18.6401 152.145 6.947 C 142.7879 -4.7461 103.6939 0.5349 78.3458 6.715 C 52.9978 12.8961 45.0108 14.0851 45.0108 14.0851 C 45.0108 14.0851 32.8417 19.1641 6.5537 6.947 C -19.7323 -5.2712 39.5488 39.9794 69.6908 42.4494 C 99.8339 44.9184 120.3629 28.8262 140.2539 28.8262 C 160.145 28.8262 173.588 25.3162 173.588 25.3162 Z " fill-opacity="1" fill="url(#obj_12_grad_pat_fill)" stroke="none" stroke-width="1" stroke-linecap="square" stroke-linejoin="miter" filter="url(#obj_12_filter)"/><defs><radialGradient spreadMethod="pad" cx="1" cy="0.52191162109375" r="1.5" id="obj_12_grad_pat_fill"><stop offset="0" stop-color="#727272" stop-opacity="0.9921568627450981"/><stop offset="0.55859375" stop-color="#212121" stop-opacity="0.99609375"/></radialGradient><filter id="obj_12_filter" x="-46%" y="-187%" width="192%" height="474%" filterUnits="objectBoundingBox"><feGaussianBlur in="SourceAlpha" stdDeviation="8"/><feComposite result="glowInnerdiff" operator="arithmetic" in2="SourceAlpha" k1="0" k2="-1" k3="1" k4="0"/><feFlood flood-color="#000000" flood-opacity="1"/><feComposite operator="in" in2="glowInnerdiff"/><feComposite result="glowInner" operator="over" in2="SourceGraphic"/></filter></defs></g><g id="obj_15" transform="matrix(0.8090169943749475,0.5877852522924731,-0.5877852522924731,0.8090169943749475,3.2515339170572055,-4.112382282246465)" opacity="1" display="inline"><path d="M 197.591 25.3162 C 197.591 25.3162 183.835 18.6401 173.183 6.947 C 162.532 -4.7461 118.032 0.5349 89.179 6.715 C 60.326 12.8961 51.235 14.0851 51.235 14.0851 C 51.235 14.0851 37.383 19.1641 7.46 6.947 C -22.461 -5.2712 45.017 39.9794 79.327 42.4494 C 113.639 44.9184 137.006 28.8262 159.648 28.8262 C 182.289 28.8262 197.591 25.3162 197.591 25.3162 Z " fill-opacity="1" fill="url(#obj_15_grad_pat_fill)" stroke="none" stroke-width="1" stroke-linecap="square" stroke-linejoin="miter" filter="url(#obj_15_filter)"/><defs><radialGradient spreadMethod="pad" cx="1" cy="0.76019287109375" r="1.5" id="obj_15_grad_pat_fill"><stop offset="0" stop-color="#727272" stop-opacity="0.9921568627450981"/><stop offset="0.55859375" stop-color="#212121" stop-opacity="0.99609375"/></radialGradient><filter id="obj_15_filter" x="-40%" y="-187%" width="180%" height="474%" filterUnits="objectBoundingBox"><feGaussianBlur in="SourceAlpha" stdDeviation="8"/><feComposite result="glowInnerdiff" operator="arithmetic" in2="SourceAlpha" k1="0" k2="-1" k3="1" k4="0"/><feFlood flood-color="#000000" flood-opacity="1"/><feComposite operator="in" in2="glowInnerdiff"/><feComposite result="glowInner" operator="over" in2="SourceGraphic"/></filter></defs></g></g><g id="obj_17" transform="matrix(1,0,0,1,444.698,71.825)" opacity="1" display="inline"><g id="obj_18" transform="matrix(1,0,0,1,0,182.57)" opacity="1" display="inline"><path d="M 0 25.316 C 0 25.316 9.352 18.64 16.594 6.9469 C 23.8351 -4.7461 54.0881 0.5349 73.7042 6.7149 C 93.3202 12.896 99.5012 14.085 99.5012 14.085 C 99.5012 14.085 108.9182 19.164 129.2613 6.9469 C 149.6033 -5.2711 103.6772 31.239 80.3512 33.7091 C 57.0241 36.1781 41.1891 28.826 25.7961 28.826 C 10.403 28.826 0 25.316 0 25.316 Z " fill-opacity="1" fill="url(#obj_18_grad_pat_fill)" stroke="none" stroke-width="1" stroke-linecap="square" stroke-linejoin="miter" filter="url(#obj_18_filter)"/><defs><radialGradient spreadMethod="pad" cx="0.2671875" cy="0.09613037109375" r="1.5" id="obj_18_grad_pat_fill"><stop offset="0" stop-color="#969696" stop-opacity="0.9921568627450981"/><stop offset="0.55859375" stop-color="#212121" stop-opacity="0.99609375"/></radialGradient><filter id="obj_18_filter" x="-60%" y="-200%" width="220%" height="500%" filterUnits="objectBoundingBox"><feGaussianBlur in="SourceAlpha" stdDeviation="8"/><feComposite result="glowInnerdiff" operator="arithmetic" in2="SourceAlpha" k1="0" k2="-1" k3="1" k4="0"/><feFlood flood-color="#000000" flood-opacity="1"/><feComposite operator="in" in2="glowInnerdiff"/><feComposite result="glowInner" operator="over" in2="SourceGraphic"/></filter></defs></g><g id="obj_19" transform="matrix(1,0,0,1,16.639,100.632)" opacity="1" display="inline"><path d="M 0 72.97 C 0 72.97 9.431 62.886 14.717 48.8741 C 20.0031 34.8612 58.8152 27.8032 84.8332 25.8482 C 110.8503 23.8932 118.8143 22.5562 118.8143 22.5562 C 118.8143 22.5562 131.9573 23.6262 153.1834 3.8843 C 174.4075 -15.8586 132.0103 45.4951 104.1073 57.1591 C 76.2022 68.822 51.7051 59.8611 32.7871 66.008 C 13.87 72.154 0 72.97 0 72.97 Z " fill-opacity="1" fill="url(#obj_19_grad_pat_fill)" stroke="none" stroke-width="1" stroke-linecap="square" stroke-linejoin="miter" filter="url(#obj_19_filter)"/><defs><radialGradient spreadMethod="pad" cx="0" cy="0.52191162109375" r="1.5" id="obj_19_grad_pat_fill"><stop offset="0" stop-color="#727272" stop-opacity="0.9921568627450981"/><stop offset="0.55859375" stop-color="#212121" stop-opacity="0.99609375"/></radialGradient><filter id="obj_19_filter" x="-50%" y="-110%" width="200%" height="320%" filterUnits="objectBoundingBox"><feGaussianBlur in="SourceAlpha" stdDeviation="8"/><feComposite result="glowInnerdiff" operator="arithmetic" in2="SourceAlpha" k1="0" k2="-1" k3="1" k4="0"/><feFlood flood-color="#000000" flood-opacity="1"/><feComposite operator="in" in2="glowInnerdiff"/><feComposite result="glowInner" operator="over" in2="SourceGraphic"/></filter></defs></g><g id="obj_20" transform="matrix(1,0,0,1,36.093,0)" opacity="1" display="inline"><path d="M 0 132.51 C 0 132.51 7.205 119.023 8.949 103.3019 C 10.693 87.5819 49.799 65.6978 76.774 53.7378 C 103.7489 41.7797 111.8029 37.3977 111.8029 37.3977 C 111.8029 37.3977 125.9949 33.3647 143.0219 5.8926 C 160.0469 -21.5795 132.0539 54.6918 105.7479 76.8568 C 79.441 99.0229 51.077 99.7389 32.76 113.0469 C 14.443 126.355 0 132.51 0 132.51 Z " fill-opacity="1" fill="url(#obj_20_grad_pat_fill)" stroke="none" stroke-width="1" stroke-linecap="square" stroke-linejoin="miter" filter="url(#obj_20_filter)"/><defs><radialGradient spreadMethod="pad" cx="0" cy="0.76019287109375" r="1.5" id="obj_20_grad_pat_fill"><stop offset="0" stop-color="#727272" stop-opacity="0.9921568627450981"/><stop offset="0.55859375" stop-color="#212121" stop-opacity="0.99609375"/></radialGradient><filter id="obj_20_filter" x="-54%" y="-60%" width="208%" height="220%" filterUnits="objectBoundingBox"><feGaussianBlur in="SourceAlpha" stdDeviation="8"/><feComposite result="glowInnerdiff" operator="arithmetic" in2="SourceAlpha" k1="0" k2="-1" k3="1" k4="0"/><feFlood flood-color="#000000" flood-opacity="1"/><feComposite operator="in" in2="glowInnerdiff"/><feComposite result="glowInner" operator="over" in2="SourceGraphic"/></filter></defs></g></g></g></svg>